  0
SECTION
  2
BLOCKS
  0
ENDSEC
  0
SECTION
  2
ENTITIES
  0
LINE
  8
0
 10
5.78107
 20
35.0266
 11
5.96352
 21
35.0734
  0
LINE
  8
0
 10
5.96352
 20
35.0734
 11
6.13866
 21
35.1427
  0
LINE
  8
0
 10
6.13866
 20
35.1427
 11
6.30373
 21
35.2335
  0
LINE
  8
0
 10
6.30373
 20
35.2335
 11
6.45613
 21
35.3442
  0
LINE
  8
0
 10
6.45613
 20
35.3442
 11
6.59344
 21
35.4732
  0
LINE
  8
0
 10
6.59344
 20
35.4732
 11
6.71352
 21
35.6183
  0
LINE
  8
0
 10
6.71352
 20
35.6183
 11
6.81445
 21
35.7774
  0
LINE
  8
0
 10
6.81445
 20
35.7774
 11
6.89465
 21
35.9478
  0
LINE
  8
0
 10
6.89465
 20
35.9478
 11
6.95287
 21
36.127
  0
LINE
  8
0
 10
6.95287
 20
36.127
 11
6.98816
 21
36.312
  0
LINE
  8
0
 10
6.98816
 20
36.312
 11
7
 21
36.5
  0
LINE
  8
0
 10
7
 20
36.5
 11
6.98816
 21
36.688
  0
LINE
  8
0
 10
6.98816
 20
36.688
 11
6.95287
 21
36.873
  0
LINE
  8
0
 10
6.95287
 20
36.873
 11
6.89465
 21
37.0522
  0
LINE
  8
0
 10
6.89465
 20
37.0522
 11
6.81445
 21
37.2226
  0
LINE
  8
0
 10
6.81445
 20
37.2226
 11
6.71352
 21
37.3817
  0
LINE
  8
0
 10
6.71352
 20
37.3817
 11
6.59344
 21
37.5268
  0
LINE
  8
0
 10
6.59344
 20
37.5268
 11
6.45613
 21
37.6558
  0
LINE
  8
0
 10
6.45613
 20
37.6558
 11
6.30373
 21
37.7665
  0
LINE
  8
0
 10
6.30373
 20
37.7665
 11
6.13866
 21
37.8572
  0
LINE
  8
0
 10
6.13866
 20
37.8572
 11
5.96352
 21
37.9266
  0
LINE
  8
0
 10
5.96352
 20
37.9266
 11
5.78107
 21
37.9734
  0
LINE
  8
0
 10
5.78107
 20
37.9734
 11
5.59418
 21
37.997
  0
LINE
  8
0
 10
5.59418
 20
37.997
 11
5.40581
 21
37.997
  0
LINE
  8
0
 10
5.40581
 20
37.997
 11
5.21892
 21
37.9734
  0
LINE
  8
0
 10
5.21892
 20
37.9734
 11
5.03647
 21
37.9266
  0
LINE
  8
0
 10
5.03647
 20
37.9266
 11
4.86133
 21
37.8572
  0
LINE
  8
0
 10
4.86133
 20
37.8572
 11
4.69626
 21
37.7665
  0
LINE
  8
0
 10
4.69626
 20
37.7665
 11
4.54385
 21
37.6558
  0
LINE
  8
0
 10
4.54385
 20
37.6558
 11
4.40654
 21
37.5268
  0
LINE
  8
0
 10
4.40654
 20
37.5268
 11
4.28647
 21
37.3817
  0
LINE
  8
0
 10
4.28647
 20
37.3817
 11
4.18553
 21
37.2226
  0
LINE
  8
0
 10
4.18553
 20
37.2226
 11
4.10533
 21
37.0522
  0
LINE
  8
0
 10
4.10533
 20
37.0522
 11
4.04712
 21
36.873
  0
LINE
  8
0
 10
4.04712
 20
36.873
 11
4.01183
 21
36.688
  0
LINE
  8
0
 10
4.01183
 20
36.688
 11
4
 21
36.5
  0
LINE
  8
0
 10
4
 20
36.5
 11
4.01183
 21
36.312
  0
LINE
  8
0
 10
4.01183
 20
36.312
 11
4.04712
 21
36.127
  0
LINE
  8
0
 10
4.04712
 20
36.127
 11
4.10533
 21
35.9478
  0
LINE
  8
0
 10
4.10533
 20
35.9478
 11
4.18553
 21
35.7774
  0
LINE
  8
0
 10
4.18553
 20
35.7774
 11
4.28647
 21
35.6183
  0
LINE
  8
0
 10
4.28647
 20
35.6183
 11
4.40654
 21
35.4732
  0
LINE
  8
0
 10
4.40654
 20
35.4732
 11
4.54385
 21
35.3442
  0
LINE
  8
0
 10
4.54385
 20
35.3442
 11
4.69626
 21
35.2335
  0
LINE
  8
0
 10
4.69626
 20
35.2335
 11
4.86133
 21
35.1427
  0
LINE
  8
0
 10
4.86133
 20
35.1427
 11
5.03647
 21
35.0734
  0
LINE
  8
0
 10
5.03647
 20
35.0734
 11
5.21892
 21
35.0266
  0
LINE
  8
0
 10
5.21892
 20
35.0266
 11
5.40581
 21
35.0029
  0
LINE
  8
0
 10
5.40581
 20
35.0029
 11
5.59418
 21
35.0029
  0
LINE
  8
0
 10
5.59418
 20
35.0029
 11
5.78107
 21
35.0266
  0
LINE
  8
0
 10
36.7811
 20
35.0266
 11
36.9635
 21
35.0734
  0
LINE
  8
0
 10
36.9635
 20
35.0734
 11
37.1387
 21
35.1427
  0
LINE
  8
0
 10
37.1387
 20
35.1427
 11
37.3037
 21
35.2335
  0
LINE
  8
0
 10
37.3037
 20
35.2335
 11
37.4561
 21
35.3442
  0
LINE
  8
0
 10
37.4561
 20
35.3442
 11
37.5934
 21
35.4732
  0
LINE
  8
0
 10
37.5934
 20
35.4732
 11
37.7135
 21
35.6183
  0
LINE
  8
0
 10
37.7135
 20
35.6183
 11
37.8145
 21
35.7774
  0
LINE
  8
0
 10
37.8145
 20
35.7774
 11
37.8947
 21
35.9478
  0
LINE
  8
0
 10
37.8947
 20
35.9478
 11
37.9529
 21
36.127
  0
LINE
  8
0
 10
37.9529
 20
36.127
 11
37.9882
 21
36.312
  0
LINE
  8
0
 10
37.9882
 20
36.312
 11
38
 21
36.5
  0
LINE
  8
0
 10
38
 20
36.5
 11
37.9882
 21
36.688
  0
LINE
  8
0
 10
37.9882
 20
36.688
 11
37.9529
 21
36.873
  0
LINE
  8
0
 10
37.9529
 20
36.873
 11
37.8947
 21
37.0522
  0
LINE
  8
0
 10
37.8947
 20
37.0522
 11
37.8145
 21
37.2226
  0
LINE
  8
0
 10
37.8145
 20
37.2226
 11
37.7135
 21
37.3817
  0
LINE
  8
0
 10
37.7135
 20
37.3817
 11
37.5934
 21
37.5268
  0
LINE
  8
0
 10
37.5934
 20
37.5268
 11
37.4561
 21
37.6558
  0
LINE
  8
0
 10
37.4561
 20
37.6558
 11
37.3037
 21
37.7665
  0
LINE
  8
0
 10
37.3037
 20
37.7665
 11
37.1387
 21
37.8572
  0
LINE
  8
0
 10
37.1387
 20
37.8572
 11
36.9635
 21
37.9266
  0
LINE
  8
0
 10
36.9635
 20
37.9266
 11
36.7811
 21
37.9734
  0
LINE
  8
0
 10
36.7811
 20
37.9734
 11
36.5942
 21
37.997
  0
LINE
  8
0
 10
36.5942
 20
37.997
 11
36.4058
 21
37.997
  0
LINE
  8
0
 10
36.4058
 20
37.997
 11
36.2189
 21
37.9734
  0
LINE
  8
0
 10
36.2189
 20
37.9734
 11
36.0365
 21
37.9266
  0
LINE
  8
0
 10
36.0365
 20
37.9266
 11
35.8613
 21
37.8572
  0
LINE
  8
0
 10
35.8613
 20
37.8572
 11
35.6963
 21
37.7665
  0
LINE
  8
0
 10
35.6963
 20
37.7665
 11
35.5439
 21
37.6558
  0
LINE
  8
0
 10
35.5439
 20
37.6558
 11
35.4065
 21
37.5268
  0
LINE
  8
0
 10
35.4065
 20
37.5268
 11
35.2865
 21
37.3817
  0
LINE
  8
0
 10
35.2865
 20
37.3817
 11
35.1855
 21
37.2226
  0
LINE
  8
0
 10
35.1855
 20
37.2226
 11
35.1053
 21
37.0522
  0
LINE
  8
0
 10
35.1053
 20
37.0522
 11
35.0471
 21
36.873
  0
LINE
  8
0
 10
35.0471
 20
36.873
 11
35.0118
 21
36.688
  0
LINE
  8
0
 10
35.0118
 20
36.688
 11
35
 21
36.5
  0
LINE
  8
0
 10
35
 20
36.5
 11
35.0118
 21
36.312
  0
LINE
  8
0
 10
35.0118
 20
36.312
 11
35.0471
 21
36.127
  0
LINE
  8
0
 10
35.0471
 20
36.127
 11
35.1053
 21
35.9478
  0
LINE
  8
0
 10
35.1053
 20
35.9478
 11
35.1855
 21
35.7774
  0
LINE
  8
0
 10
35.1855
 20
35.7774
 11
35.2865
 21
35.6183
  0
LINE
  8
0
 10
35.2865
 20
35.6183
 11
35.4065
 21
35.4732
  0
LINE
  8
0
 10
35.4065
 20
35.4732
 11
35.5439
 21
35.3442
  0
LINE
  8
0
 10
35.5439
 20
35.3442
 11
35.6963
 21
35.2335
  0
LINE
  8
0
 10
35.6963
 20
35.2335
 11
35.8613
 21
35.1427
  0
LINE
  8
0
 10
35.8613
 20
35.1427
 11
36.0365
 21
35.0734
  0
LINE
  8
0
 10
36.0365
 20
35.0734
 11
36.2189
 21
35.0266
  0
LINE
  8
0
 10
36.2189
 20
35.0266
 11
36.4058
 21
35.0029
  0
LINE
  8
0
 10
36.4058
 20
35.0029
 11
36.5942
 21
35.0029
  0
LINE
  8
0
 10
36.5942
 20
35.0029
 11
36.7811
 21
35.0266
  0
LINE
  8
0
 10
23.2486
 20
9.21254
 11
24.7082
 21
9.58731
  0
LINE
  8
0
 10
24.7082
 20
9.58731
 11
26.1093
 21
10.1421
  0
LINE
  8
0
 10
26.1093
 20
10.1421
 11
27.4299
 21
10.8681
  0
LINE
  8
0
 10
27.4299
 20
10.8681
 11
28.6491
 21
11.7538
  0
LINE
  8
0
 10
28.6491
 20
11.7538
 11
29.7476
 21
12.7854
  0
LINE
  8
0
 10
29.7476
 20
12.7854
 11
30.7082
 21
13.9466
  0
LINE
  8
0
 10
30.7082
 20
13.9466
 11
31.5157
 21
15.2189
  0
LINE
  8
0
 10
31.5157
 20
15.2189
 11
32.1573
 21
16.5825
  0
LINE
  8
0
 10
32.1573
 20
16.5825
 11
32.623
 21
18.0157
  0
LINE
  8
0
 10
32.623
 20
18.0157
 11
32.9054
 21
19.496
  0
LINE
  8
0
 10
32.9054
 20
19.496
 11
33
 21
21
  0
LINE
  8
0
 10
33
 20
21
 11
32.9054
 21
22.504
  0
LINE
  8
0
 10
32.9054
 20
22.504
 11
32.623
 21
23.9843
  0
LINE
  8
0
 10
32.623
 20
23.9843
 11
32.1573
 21
25.4175
  0
LINE
  8
0
 10
32.1573
 20
25.4175
 11
31.5157
 21
26.781
  0
LINE
  8
0
 10
31.5157
 20
26.781
 11
30.7082
 21
28.0534
  0
LINE
  8
0
 10
30.7082
 20
28.0534
 11
29.7476
 21
29.2146
  0
LINE
  8
0
 10
29.7476
 20
29.2146
 11
28.6491
 21
30.2462
  0
LINE
  8
0
 10
28.6491
 20
30.2462
 11
27.4299
 21
31.1319
  0
LINE
  8
0
 10
27.4299
 20
31.1319
 11
26.1093
 21
31.8579
  0
LINE
  8
0
 10
26.1093
 20
31.8579
 11
24.7082
 21
32.4127
  0
LINE
  8
0
 10
24.7082
 20
32.4127
 11
23.2486
 21
32.7874
  0
LINE
  8
0
 10
23.2486
 20
32.7874
 11
21.7535
 21
32.9763
  0
LINE
  8
0
 10
21.7535
 20
32.9763
 11
20.2465
 21
32.9763
  0
LINE
  8
0
 10
20.2465
 20
32.9763
 11
18.7514
 21
32.7874
  0
LINE
  8
0
 10
18.7514
 20
32.7874
 11
17.2918
 21
32.4127
  0
LINE
  8
0
 10
17.2918
 20
32.4127
 11
15.8906
 21
31.8579
  0
LINE
  8
0
 10
15.8906
 20
31.8579
 11
14.5701
 21
31.1319
  0
LINE
  8
0
 10
14.5701
 20
31.1319
 11
13.3509
 21
30.2462
  0
LINE
  8
0
 10
13.3509
 20
30.2462
 11
12.2524
 21
29.2146
  0
LINE
  8
0
 10
12.2524
 20
29.2146
 11
11.2918
 21
28.0534
  0
LINE
  8
0
 10
11.2918
 20
28.0534
 11
10.4843
 21
26.781
  0
LINE
  8
0
 10
10.4843
 20
26.781
 11
9.84268
 21
25.4175
  0
LINE
  8
0
 10
9.84268
 20
25.4175
 11
9.377
 21
23.9843
  0
LINE
  8
0
 10
9.377
 20
23.9843
 11
9.09462
 21
22.504
  0
LINE
  8
0
 10
9.09462
 20
22.504
 11
9
 21
21
  0
LINE
  8
0
 10
9
 20
21
 11
9.09462
 21
19.496
  0
LINE
  8
0
 10
9.09462
 20
19.496
 11
9.377
 21
18.0157
  0
LINE
  8
0
 10
9.377
 20
18.0157
 11
9.84268
 21
16.5825
  0
LINE
  8
0
 10
9.84268
 20
16.5825
 11
10.4843
 21
15.2189
  0
LINE
  8
0
 10
10.4843
 20
15.2189
 11
11.2918
 21
13.9466
  0
LINE
  8
0
 10
11.2918
 20
13.9466
 11
12.2524
 21
12.7854
  0
LINE
  8
0
 10
12.2524
 20
12.7854
 11
13.3509
 21
11.7538
  0
LINE
  8
0
 10
13.3509
 20
11.7538
 11
14.5701
 21
10.8681
  0
LINE
  8
0
 10
14.5701
 20
10.8681
 11
15.8906
 21
10.1421
  0
LINE
  8
0
 10
15.8906
 20
10.1421
 11
17.2918
 21
9.58731
  0
LINE
  8
0
 10
17.2918
 20
9.58731
 11
18.7514
 21
9.21254
  0
LINE
  8
0
 10
18.7514
 20
9.21254
 11
20.2465
 21
9.02367
  0
LINE
  8
0
 10
20.2465
 20
9.02367
 11
21.7535
 21
9.02367
  0
LINE
  8
0
 10
21.7535
 20
9.02367
 11
23.2486
 21
9.21254
  0
LINE
  8
0
 10
5.78107
 20
4.02657
 11
5.96352
 21
4.07341
  0
LINE
  8
0
 10
5.96352
 20
4.07341
 11
6.13866
 21
4.14275
  0
LINE
  8
0
 10
6.13866
 20
4.14275
 11
6.30373
 21
4.23351
  0
LINE
  8
0
 10
6.30373
 20
4.23351
 11
6.45613
 21
4.34422
  0
LINE
  8
0
 10
6.45613
 20
4.34422
 11
6.59344
 21
4.47318
  0
LINE
  8
0
 10
6.59344
 20
4.47318
 11
6.71352
 21
4.61832
  0
LINE
  8
0
 10
6.71352
 20
4.61832
 11
6.81445
 21
4.77736
  0
LINE
  8
0
 10
6.81445
 20
4.77736
 11
6.89465
 21
4.9478
  0
LINE
  8
0
 10
6.89465
 20
4.9478
 11
6.95287
 21
5.12695
  0
LINE
  8
0
 10
6.95287
 20
5.12695
 11
6.98816
 21
5.312
  0
LINE
  8
0
 10
6.98816
 20
5.312
 11
7
 21
5.5
  0
LINE
  8
0
 10
7
 20
5.5
 11
6.98816
 21
5.68799
  0
LINE
  8
0
 10
6.98816
 20
5.68799
 11
6.95287
 21
5.87303
  0
LINE
  8
0
 10
6.95287
 20
5.87303
 11
6.89465
 21
6.05219
  0
LINE
  8
0
 10
6.89465
 20
6.05219
 11
6.81445
 21
6.22263
  0
LINE
  8
0
 10
6.81445
 20
6.22263
 11
6.71352
 21
6.38167
  0
LINE
  8
0
 10
6.71352
 20
6.38167
 11
6.59344
 21
6.52681
  0
LINE
  8
0
 10
6.59344
 20
6.52681
 11
6.45613
 21
6.65576
  0
LINE
  8
0
 10
6.45613
 20
6.65576
 11
6.30373
 21
6.76648
  0
LINE
  8
0
 10
6.30373
 20
6.76648
 11
6.13866
 21
6.85724
  0
LINE
  8
0
 10
6.13866
 20
6.85724
 11
5.96352
 21
6.92657
  0
LINE
  8
0
 10
5.96352
 20
6.92657
 11
5.78107
 21
6.97342
  0
LINE
  8
0
 10
5.78107
 20
6.97342
 11
5.59418
 21
6.99704
  0
LINE
  8
0
 10
5.59418
 20
6.99704
 11
5.40581
 21
6.99704
  0
LINE
  8
0
 10
5.40581
 20
6.99704
 11
5.21892
 21
6.97342
  0
LINE
  8
0
 10
5.21892
 20
6.97342
 11
5.03647
 21
6.92657
  0
LINE
  8
0
 10
5.03647
 20
6.92657
 11
4.86133
 21
6.85724
  0
LINE
  8
0
 10
4.86133
 20
6.85724
 11
4.69626
 21
6.76648
  0
LINE
  8
0
 10
4.69626
 20
6.76648
 11
4.54385
 21
6.65576
  0
LINE
  8
0
 10
4.54385
 20
6.65576
 11
4.40654
 21
6.52681
  0
LINE
  8
0
 10
4.40654
 20
6.52681
 11
4.28647
 21
6.38167
  0
LINE
  8
0
 10
4.28647
 20
6.38167
 11
4.18553
 21
6.22263
  0
LINE
  8
0
 10
4.18553
 20
6.22263
 11
4.10533
 21
6.05219
  0
LINE
  8
0
 10
4.10533
 20
6.05219
 11
4.04712
 21
5.87303
  0
LINE
  8
0
 10
4.04712
 20
5.87303
 11
4.01183
 21
5.68799
  0
LINE
  8
0
 10
4.01183
 20
5.68799
 11
4
 21
5.5
  0
LINE
  8
0
 10
4
 20
5.5
 11
4.01183
 21
5.312
  0
LINE
  8
0
 10
4.01183
 20
5.312
 11
4.04712
 21
5.12695
  0
LINE
  8
0
 10
4.04712
 20
5.12695
 11
4.10533
 21
4.9478
  0
LINE
  8
0
 10
4.10533
 20
4.9478
 11
4.18553
 21
4.77736
  0
LINE
  8
0
 10
4.18553
 20
4.77736
 11
4.28647
 21
4.61832
  0
LINE
  8
0
 10
4.28647
 20
4.61832
 11
4.40654
 21
4.47318
  0
LINE
  8
0
 10
4.40654
 20
4.47318
 11
4.54385
 21
4.34422
  0
LINE
  8
0
 10
4.54385
 20
4.34422
 11
4.69626
 21
4.23351
  0
LINE
  8
0
 10
4.69626
 20
4.23351
 11
4.86133
 21
4.14275
  0
LINE
  8
0
 10
4.86133
 20
4.14275
 11
5.03647
 21
4.07341
  0
LINE
  8
0
 10
5.03647
 20
4.07341
 11
5.21892
 21
4.02657
  0
LINE
  8
0
 10
5.21892
 20
4.02657
 11
5.40581
 21
4.00294
  0
LINE
  8
0
 10
5.40581
 20
4.00294
 11
5.59418
 21
4.00294
  0
LINE
  8
0
 10
5.59418
 20
4.00294
 11
5.78107
 21
4.02657
  0
LINE
  8
0
 10
36.7811
 20
4.02657
 11
36.9635
 21
4.07341
  0
LINE
  8
0
 10
36.9635
 20
4.07341
 11
37.1387
 21
4.14275
  0
LINE
  8
0
 10
37.1387
 20
4.14275
 11
37.3037
 21
4.23351
  0
LINE
  8
0
 10
37.3037
 20
4.23351
 11
37.4561
 21
4.34422
  0
LINE
  8
0
 10
37.4561
 20
4.34422
 11
37.5934
 21
4.47318
  0
LINE
  8
0
 10
37.5934
 20
4.47318
 11
37.7135
 21
4.61832
  0
LINE
  8
0
 10
37.7135
 20
4.61832
 11
37.8145
 21
4.77736
  0
LINE
  8
0
 10
37.8145
 20
4.77736
 11
37.8947
 21
4.9478
  0
LINE
  8
0
 10
37.8947
 20
4.9478
 11
37.9529
 21
5.12695
  0
LINE
  8
0
 10
37.9529
 20
5.12695
 11
37.9882
 21
5.312
  0
LINE
  8
0
 10
37.9882
 20
5.312
 11
38
 21
5.5
  0
LINE
  8
0
 10
38
 20
5.5
 11
37.9882
 21
5.68799
  0
LINE
  8
0
 10
37.9882
 20
5.68799
 11
37.9529
 21
5.87303
  0
LINE
  8
0
 10
37.9529
 20
5.87303
 11
37.8947
 21
6.05219
  0
LINE
  8
0
 10
37.8947
 20
6.05219
 11
37.8145
 21
6.22263
  0
LINE
  8
0
 10
37.8145
 20
6.22263
 11
37.7135
 21
6.38167
  0
LINE
  8
0
 10
37.7135
 20
6.38167
 11
37.5934
 21
6.52681
  0
LINE
  8
0
 10
37.5934
 20
6.52681
 11
37.4561
 21
6.65576
  0
LINE
  8
0
 10
37.4561
 20
6.65576
 11
37.3037
 21
6.76648
  0
LINE
  8
0
 10
37.3037
 20
6.76648
 11
37.1387
 21
6.85724
  0
LINE
  8
0
 10
37.1387
 20
6.85724
 11
36.9635
 21
6.92657
  0
LINE
  8
0
 10
36.9635
 20
6.92657
 11
36.7811
 21
6.97342
  0
LINE
  8
0
 10
36.7811
 20
6.97342
 11
36.5942
 21
6.99704
  0
LINE
  8
0
 10
36.5942
 20
6.99704
 11
36.4058
 21
6.99704
  0
LINE
  8
0
 10
36.4058
 20
6.99704
 11
36.2189
 21
6.97342
  0
LINE
  8
0
 10
36.2189
 20
6.97342
 11
36.0365
 21
6.92657
  0
LINE
  8
0
 10
36.0365
 20
6.92657
 11
35.8613
 21
6.85724
  0
LINE
  8
0
 10
35.8613
 20
6.85724
 11
35.6963
 21
6.76648
  0
LINE
  8
0
 10
35.6963
 20
6.76648
 11
35.5439
 21
6.65576
  0
LINE
  8
0
 10
35.5439
 20
6.65576
 11
35.4065
 21
6.52681
  0
LINE
  8
0
 10
35.4065
 20
6.52681
 11
35.2865
 21
6.38167
  0
LINE
  8
0
 10
35.2865
 20
6.38167
 11
35.1855
 21
6.22263
  0
LINE
  8
0
 10
35.1855
 20
6.22263
 11
35.1053
 21
6.05219
  0
LINE
  8
0
 10
35.1053
 20
6.05219
 11
35.0471
 21
5.87303
  0
LINE
  8
0
 10
35.0471
 20
5.87303
 11
35.0118
 21
5.68799
  0
LINE
  8
0
 10
35.0118
 20
5.68799
 11
35
 21
5.5
  0
LINE
  8
0
 10
35
 20
5.5
 11
35.0118
 21
5.312
  0
LINE
  8
0
 10
35.0118
 20
5.312
 11
35.0471
 21
5.12695
  0
LINE
  8
0
 10
35.0471
 20
5.12695
 11
35.1053
 21
4.9478
  0
LINE
  8
0
 10
35.1053
 20
4.9478
 11
35.1855
 21
4.77736
  0
LINE
  8
0
 10
35.1855
 20
4.77736
 11
35.2865
 21
4.61832
  0
LINE
  8
0
 10
35.2865
 20
4.61832
 11
35.4065
 21
4.47318
  0
LINE
  8
0
 10
35.4065
 20
4.47318
 11
35.5439
 21
4.34422
  0
LINE
  8
0
 10
35.5439
 20
4.34422
 11
35.6963
 21
4.23351
  0
LINE
  8
0
 10
35.6963
 20
4.23351
 11
35.8613
 21
4.14275
  0
LINE
  8
0
 10
35.8613
 20
4.14275
 11
36.0365
 21
4.07341
  0
LINE
  8
0
 10
36.0365
 20
4.07341
 11
36.2189
 21
4.02657
  0
LINE
  8
0
 10
36.2189
 20
4.02657
 11
36.4058
 21
4.00294
  0
LINE
  8
0
 10
36.4058
 20
4.00294
 11
36.5942
 21
4.00294
  0
LINE
  8
0
 10
36.5942
 20
4.00294
 11
36.7811
 21
4.02657
  0
ENDSEC
  0
SECTION
  2
OBJECTS
  0
DICTIONARY
  0
ENDSEC
  0
EOF
